<svg xmlns="http://www.w3.org/2000/svg" xmlns:xlink="http://www.w3.org/1999/xlink" viewBox="0 0 167.83 136.2"><defs><style>.cls-1{isolation:isolate;}.cls-2{fill:#9eeaff;}.cls-3{fill:#ffdeec;}.cls-4{fill:url(#linear-gradient);}.cls-11,.cls-28,.cls-35,.cls-5,.cls-52,.cls-9{fill:#fff;}.cls-28,.cls-30,.cls-32,.cls-33,.cls-46,.cls-47,.cls-5{opacity:0.5;}.cls-5,.cls-52,.cls-9{mix-blend-mode:soft-light;}.cls-10,.cls-6{fill:#be2f55;}.cls-22,.cls-34,.cls-48,.cls-6{opacity:0.3;}.cls-10,.cls-14,.cls-18,.cls-21,.cls-22,.cls-24,.cls-25,.cls-26,.cls-27,.cls-30,.cls-31,.cls-32,.cls-33,.cls-34,.cls-40,.cls-41,.cls-42,.cls-43,.cls-45,.cls-46,.cls-47,.cls-48,.cls-50,.cls-6,.cls-7{mix-blend-mode:multiply;}.cls-7{fill:url(#linear-gradient-2);}.cls-8{fill:url(#linear-gradient-3);}.cls-9{opacity:0.8;}.cls-10{opacity:0.78;}.cls-12,.cls-16{mix-blend-mode:color-dodge;}.cls-12{fill:url(#Gradient_1);}.cls-13{fill:url(#linear-gradient-4);}.cls-14{fill:url(#linear-gradient-5);}.cls-15{fill:url(#linear-gradient-6);}.cls-16{fill:url(#Gradient_1-2);}.cls-17{fill:url(#linear-gradient-7);}.cls-18{fill:url(#linear-gradient-8);}.cls-19{mix-blend-mode:overlay;fill:url(#linear-gradient-9);}.cls-20{fill:url(#linear-gradient-10);}.cls-21{fill:url(#linear-gradient-11);}.cls-22{fill:#be2fbc;}.cls-23{fill:url(#linear-gradient-12);}.cls-24{fill:url(#linear-gradient-13);}.cls-25{fill:url(#linear-gradient-14);}.cls-26{fill:url(#linear-gradient-15);}.cls-27{fill:url(#linear-gradient-16);}.cls-29{fill:url(#linear-gradient-17);}.cls-31{fill:url(#linear-gradient-18);}.cls-32{fill:url(#linear-gradient-19);}.cls-33{fill:url(#linear-gradient-20);}.cls-34{fill:url(#linear-gradient-21);}.cls-35{mix-blend-mode:screen;}.cls-36{fill:url(#linear-gradient-22);}.cls-37{fill:url(#linear-gradient-23);}.cls-38{fill:#ffc4e5;}.cls-39{fill:url(#linear-gradient-24);}.cls-40{fill:url(#linear-gradient-25);}.cls-41{fill:url(#linear-gradient-26);}.cls-42{fill:url(#linear-gradient-27);}.cls-43{fill:url(#linear-gradient-28);}.cls-44{fill:url(#linear-gradient-29);}.cls-45{fill:url(#linear-gradient-30);}.cls-46{fill:url(#linear-gradient-31);}.cls-47{fill:url(#linear-gradient-32);}.cls-48{fill:url(#linear-gradient-33);}.cls-49{fill:url(#linear-gradient-34);}.cls-50{fill:url(#linear-gradient-35);}.cls-51{fill:url(#linear-gradient-36);}</style><linearGradient id="linear-gradient" x1="41.49" y1="30.12" x2="41.49" y2="6.27" gradientUnits="userSpaceOnUse"><stop offset="0" stop-color="#ffabcf"/><stop offset="0.2" stop-color="#ffa0cc"/><stop offset="0.54" stop-color="#ff83c3"/><stop offset="0.99" stop-color="#ff55b4"/><stop offset="1" stop-color="#ff54b4"/></linearGradient><linearGradient id="linear-gradient-2" x1="41.48" y1="27.72" x2="41.48" y2="8.67" gradientUnits="userSpaceOnUse"><stop offset="0" stop-color="#c0abff"/><stop offset="0.2" stop-color="#bba0ff"/><stop offset="0.54" stop-color="#ad83ff"/><stop offset="0.99" stop-color="#9655ff"/><stop offset="1" stop-color="#9654ff"/></linearGradient><linearGradient id="linear-gradient-3" x1="41.48" y1="25.99" x2="41.48" y2="10.39" gradientUnits="userSpaceOnUse"><stop offset="0" stop-color="#bdf6ff"/><stop offset="1" stop-color="#0fd9ff"/></linearGradient><radialGradient id="Gradient_1" cx="1018.03" cy="-1429.1" r="2.61" gradientTransform="matrix(0.72, 0.05, -0.03, 0.37, -736.95, 476.34)" gradientUnits="userSpaceOnUse"><stop offset="0.52" stop-color="#a68f95"/><stop offset="1"/></radialGradient><linearGradient id="linear-gradient-4" x1="-1063.85" y1="30.12" x2="-1063.85" y2="6.27" gradientTransform="matrix(-1, 0, 0, 1, -937.5, 0)" xlink:href="#linear-gradient"/><linearGradient id="linear-gradient-5" x1="-1063.85" y1="27.72" x2="-1063.85" y2="8.67" gradientTransform="matrix(-1, 0, 0, 1, -937.5, 0)" xlink:href="#linear-gradient-2"/><linearGradient id="linear-gradient-6" x1="-1063.85" y1="25.99" x2="-1063.85" y2="10.39" gradientTransform="matrix(-1, 0, 0, 1, -937.5, 0)" xlink:href="#linear-gradient-3"/><radialGradient id="Gradient_1-2" cx="-506.6" cy="-1205.76" r="2.61" gradientTransform="matrix(-0.72, 0.05, 0.03, 0.37, -200.55, 476.34)" xlink:href="#Gradient_1"/><linearGradient id="linear-gradient-7" x1="83.91" y1="130.13" x2="83.91" y2="0" xlink:href="#linear-gradient"/><linearGradient id="linear-gradient-8" x1="83.91" y1="119.78" x2="83.91" y2="10.35" gradientUnits="userSpaceOnUse"><stop offset="0" stop-color="#fff"/><stop offset="0.19" stop-color="#e9c2da"/><stop offset="0.4" stop-color="#d283b4"/><stop offset="0.6" stop-color="#c05296"/><stop offset="0.77" stop-color="#b32e80"/><stop offset="0.91" stop-color="#ab1873"/><stop offset="1" stop-color="#a8106e"/></linearGradient><linearGradient id="linear-gradient-9" x1="83.91" y1="119.78" x2="83.91" y2="10.35" gradientUnits="userSpaceOnUse"><stop offset="0" stop-color="#ffd3b0"/><stop offset="1" stop-color="#8c58bf"/></linearGradient><linearGradient id="linear-gradient-10" x1="83.91" y1="113.56" x2="83.91" y2="16.56" xlink:href="#linear-gradient-3"/><linearGradient id="linear-gradient-11" x1="29.66" y1="110.25" x2="143.86" y2="110.25" gradientUnits="userSpaceOnUse"><stop offset="0" stop-color="#b8b9ff"/><stop offset="1" stop-color="#ac40ff"/></linearGradient><linearGradient id="linear-gradient-12" x1="234.63" y1="413.55" x2="234.63" y2="348.11" gradientTransform="translate(-332.38 -155.22) rotate(-22.89)" gradientUnits="userSpaceOnUse"><stop offset="0" stop-color="#ff91ee"/><stop offset="1" stop-color="#ffebfc"/></linearGradient><linearGradient id="linear-gradient-13" x1="223.15" y1="348.11" x2="223.15" y2="383.62" gradientTransform="translate(-332.38 -155.22) rotate(-22.89)" gradientUnits="userSpaceOnUse"><stop offset="0" stop-color="#ffadda"/><stop offset="1" stop-color="#ff78c2"/></linearGradient><linearGradient id="linear-gradient-14" x1="225.49" y1="375.56" x2="225.49" y2="391.75" xlink:href="#linear-gradient-13"/><linearGradient id="linear-gradient-15" x1="233.18" y1="389.21" x2="233.18" y2="405.4" xlink:href="#linear-gradient-13"/><linearGradient id="linear-gradient-16" x1="242.12" y1="402.32" x2="242.12" y2="413.55" xlink:href="#linear-gradient-13"/><linearGradient id="linear-gradient-17" x1="39.6" y1="128.78" x2="39.6" y2="93.62" gradientUnits="userSpaceOnUse"><stop offset="0" stop-color="#ffe0fb"/><stop offset="1" stop-color="#fff"/></linearGradient><linearGradient id="linear-gradient-18" x1="220.56" y1="370.4" x2="220.56" y2="397.46" gradientTransform="translate(-342.26 -145.33) rotate(-26.07)" xlink:href="#linear-gradient-13"/><linearGradient id="linear-gradient-19" x1="234.64" y1="385.65" x2="234.64" y2="404.71" xlink:href="#linear-gradient-13"/><linearGradient id="linear-gradient-20" x1="41.68" y1="117.7" x2="67.41" y2="117.7" gradientTransform="matrix(1, 0, 0, 1, 0, 0)" xlink:href="#linear-gradient-13"/><linearGradient id="linear-gradient-21" x1="29.33" y1="110.19" x2="52.06" y2="97.07" gradientUnits="userSpaceOnUse"><stop offset="0" stop-color="#fff"/><stop offset="1" stop-color="#ff78c2"/></linearGradient><linearGradient id="linear-gradient-22" x1="-810.27" y1="-95.54" x2="-790.63" y2="-95.54" gradientTransform="matrix(-0.9, -0.44, -0.44, 0.9, -626.1, -145.33)" xlink:href="#linear-gradient-13"/><linearGradient id="linear-gradient-23" x1="-801.09" y1="-83.7" x2="-784.44" y2="-83.7" gradientTransform="matrix(-0.9, -0.44, -0.44, 0.9, -626.1, -145.33)" xlink:href="#linear-gradient-13"/><linearGradient id="linear-gradient-24" x1="-812.1" y1="-28.45" x2="-812.1" y2="-93.9" gradientTransform="matrix(-0.92, -0.39, -0.39, 0.92, -635.98, -155.22)" xlink:href="#linear-gradient-12"/><linearGradient id="linear-gradient-25" x1="-823.58" y1="-93.9" x2="-823.58" y2="-58.39" gradientTransform="matrix(-0.92, -0.39, -0.39, 0.92, -635.98, -155.22)" xlink:href="#linear-gradient-13"/><linearGradient id="linear-gradient-26" x1="-821.24" y1="-66.45" x2="-821.24" y2="-50.26" gradientTransform="matrix(-0.92, -0.39, -0.39, 0.92, -635.98, -155.22)" xlink:href="#linear-gradient-13"/><linearGradient id="linear-gradient-27" x1="-813.55" y1="-52.8" x2="-813.55" y2="-36.61" gradientTransform="matrix(-0.92, -0.39, -0.39, 0.92, -635.98, -155.22)" xlink:href="#linear-gradient-13"/><linearGradient id="linear-gradient-28" x1="-804.61" y1="-39.69" x2="-804.61" y2="-28.45" gradientTransform="matrix(-0.92, -0.39, -0.39, 0.92, -635.98, -155.22)" xlink:href="#linear-gradient-13"/><linearGradient id="linear-gradient-29" x1="-1096.59" y1="128.78" x2="-1096.59" y2="93.62" gradientTransform="matrix(-1, 0, 0, 1, -968.36, 0)" xlink:href="#linear-gradient-17"/><linearGradient id="linear-gradient-30" x1="-800.07" y1="-128.83" x2="-800.07" y2="-101.77" gradientTransform="matrix(-0.9, -0.44, -0.44, 0.9, -626.1, -145.33)" xlink:href="#linear-gradient-13"/><linearGradient id="linear-gradient-31" x1="-812.1" y1="-56.36" x2="-812.1" y2="-37.3" gradientTransform="matrix(-0.92, -0.39, -0.39, 0.92, -635.98, -155.22)" xlink:href="#linear-gradient-13"/><linearGradient id="linear-gradient-32" x1="-1094.51" y1="117.7" x2="-1068.78" y2="117.7" gradientTransform="matrix(-1, 0, 0, 1, -968.36, 0)" xlink:href="#linear-gradient-13"/><linearGradient id="linear-gradient-33" x1="-1106.86" y1="110.19" x2="-1084.13" y2="97.07" gradientTransform="matrix(-1, 0, 0, 1, -968.36, 0)" xlink:href="#linear-gradient-21"/><linearGradient id="linear-gradient-34" x1="83.91" y1="136.2" x2="83.91" y2="103.04" gradientUnits="userSpaceOnUse"><stop offset="0" stop-color="#ff80b6"/><stop offset="0.27" stop-color="#ff75b4"/><stop offset="0.73" stop-color="#ff58b0"/><stop offset="1" stop-color="#ff45ad"/></linearGradient><linearGradient id="linear-gradient-35" x1="83.91" y1="133.29" x2="83.91" y2="107.94" xlink:href="#linear-gradient-2"/><linearGradient id="linear-gradient-36" x1="83.91" y1="132.1" x2="83.91" y2="110.12" xlink:href="#linear-gradient-3"/></defs><g class="cls-1"><g id="Layer_2" data-name="Layer 2"><g id="Layer_3" data-name="Layer 3"><path class="cls-2" d="M18.93,68.44A56,56,0,0,1,33,22.93c20.52-22.69-6,26.3-6,26.3Z"/><path class="cls-2" d="M30.36,11.18s-.76-4.61.53-5.33S49.52,8.67,49.52,8.67s12.85-7,21.88-7.42S46.53,16.82,46.53,16.82Z"/><path class="cls-3" d="M106.85,4.16l11,4.31s16.44-3,18-2.86,2.22,1.53,1.58,11.21S109,8.47,109,8.47Z"/><path class="cls-4" d="M52.63,10.35,31.41,30.12s-.12-1.14-.28-2.91c-.09-.95-.18-2.08-.28-3.32h0c-.29-3.78-.58-8.55-.5-12.16,0-2.92.35-5.08,1.06-5.34s3.46,0,6.64.65c1.42.26,2.94.58,4.44.91h0a.35.35,0,0,1,.14,0h.09c3.22.71,6.34,1.47,8.18,1.93C52,10.18,52.63,10.35,52.63,10.35Z"/><path class="cls-5" d="M41.48,8.67c-.11.28-7.95-1.31-9.06-.55s.06,10.28-1.1,9.37a42.33,42.33,0,0,1-1-5.77c0-2.92.35-5.08,1.06-5.34s3.46,0,6.64.65A15.83,15.83,0,0,1,41.48,8.67Z"/><path class="cls-6" d="M33.11,24.27l-.53,3.45-1.45-.51c-.09-.95-.14-1.57-.24-2.81A2.65,2.65,0,0,0,32.31,23a15.74,15.74,0,0,0,.41-3.82Z"/><path class="cls-6" d="M50.93,9.92,49.1,11.18H47.42l-.44-.1s.34-.19,0-1.23C46.7,9,43.69,8.21,42.75,8,46,8.7,49.09,9.46,50.93,9.92Z"/><path class="cls-7" d="M50.39,11.93l-17,15.79S33,23.46,32.74,19c-.27-4.79-.3-9.85.69-10.21,1.15-.42,6.87.77,11.35,1.8h0C47.89,11.28,50.39,11.93,50.39,11.93Z"/><path class="cls-8" d="M34.89,26s-1.58-14.94,0-15.52,13.89,2.59,13.89,2.59Z"/><path class="cls-9" d="M35.41,16.05c.74-.11,1-1.11,2.52-2.34.89-.71,2.75-1.14,2.45-1.65S35.26,10,35.1,11.12,33.9,16.27,35.41,16.05Z"/><path class="cls-10" d="M44.78,10.56c-.46-.05-8.78-1.89-10.39,0S32.74,19,32.74,19c-.27-4.79-.3-9.85.69-10.21C34.58,8.34,40.3,9.53,44.78,10.56Z"/><path class="cls-11" d="M34.7,8c-.54.54,2,.57,2.43.43S35.86,6.83,34.7,8Z"/><path class="cls-12" d="M37.8,8.14c0,.53-.92.89-1.95.81S34,8.39,34,7.86,35,7,36,7.05,37.83,7.61,37.8,8.14Z"/><path class="cls-13" d="M115.2,10.35l21.23,19.77s.12-1.14.27-2.91c.09-.95.18-2.08.28-3.33h0c.29-3.78.58-8.55.5-12.16,0-2.92-.35-5.08-1-5.34s-3.47,0-6.65.65c-1.41.26-2.93.58-4.44.9h0l-.13,0-.1,0c-3.22.71-6.34,1.47-8.18,1.93Z"/><path class="cls-5" d="M126.35,8.67c.11.28,8-1.31,9.06-.55s-.06,10.28,1.1,9.37a42.33,42.33,0,0,0,1-5.77c0-2.92-.35-5.08-1-5.34s-3.47,0-6.65.65A15.83,15.83,0,0,0,126.35,8.67Z"/><path class="cls-6" d="M134.72,24.27l.53,3.45,1.45-.51c.09-.95.14-1.57.24-2.81A2.62,2.62,0,0,1,135.53,23a15.36,15.36,0,0,1-.42-3.82Z"/><path class="cls-6" d="M116.9,9.92l1.83,1.26h1.69l.43-.1s-.33-.19,0-1.23c.28-.87,3.29-1.64,4.23-1.86C121.86,8.7,118.74,9.46,116.9,9.92Z"/><path class="cls-14" d="M117.44,11.93l17,15.79s.45-4.26.69-8.75c.27-4.79.3-9.85-.69-10.21-1.14-.42-6.87.76-11.35,1.8h0C119.94,11.28,117.44,11.93,117.44,11.93Z"/><path class="cls-15" d="M132.94,26s1.58-14.95,0-15.52-13.89,2.59-13.89,2.59Z"/><path class="cls-9" d="M132.42,16.05c-.74-.12-.95-1.11-2.52-2.34-.89-.71-2.75-1.14-2.45-1.65s5.12-2.05,5.28-.94S133.93,16.27,132.42,16.05Z"/><path class="cls-10" d="M123.05,10.56c.46-.05,8.72-2.11,10.33-.21S135.09,19,135.09,19c.27-4.79.3-9.85-.69-10.21C133.26,8.34,127.53,9.52,123.05,10.56Z"/><path class="cls-11" d="M133.13,8c.54.54-2,.57-2.43.43S132,6.83,133.13,8Z"/><path class="cls-16" d="M130,8.14c0,.53.91.89,1.94.81s1.85-.56,1.81-1.09-.91-.89-1.95-.81S130,7.61,130,8.14Z"/><path class="cls-17" d="M148.08,54.22a64.77,64.77,0,0,0-8.42-22.72h0a64.2,64.2,0,0,0-6.92-9.43l-.42-.47-.09-.1a63.9,63.9,0,0,0-6.19-6c-1-.85-2-1.66-3.05-2.44l-1.78-1.3a65.24,65.24,0,0,0-14.36-7.58l-.52-.2a64.54,64.54,0,0,0-6.64-2c-.71-.18-1.41-.34-2.13-.49s-1.31-.27-2-.39h0C95.18,1,94.78.9,94.36.84L93.67.73A63.19,63.19,0,0,0,87.19.08C86.1,0,85,0,83.91,0s-2.33,0-3.48.09a64.51,64.51,0,0,0-10.38,1.4h0A61.86,61.86,0,0,0,62.5,3.61c-1.3.45-2.59.95-3.87,1.48a65.6,65.6,0,0,0-9.23,4.8,64.66,64.66,0,0,0-6.07,4.31q-1.81,1.44-3.52,3A65.05,65.05,0,0,0,21.27,47.41c-.27,1-.52,1.93-.75,2.9h0c-.08.36-.16.71-.23,1.07a65.62,65.62,0,0,0-1.43,11.9c0,.59,0,1.18,0,1.78s0,1.36,0,2a64.45,64.45,0,0,0,4.57,22.05c.16.41.34.83.51,1.25A64.32,64.32,0,0,0,29.65,101v0a65.47,65.47,0,0,0,5.21,6.83c.92,1.06,1.88,2.09,2.87,3.08s1.87,1.84,2.85,2.71q1.84,1.65,3.79,3.14l.79.6c.53.39,1.06.77,1.61,1.15l.81.56c.82.55,1.65,1.08,2.5,1.6a64.72,64.72,0,0,0,33.82,9.47h2l1.09,0h.35l.5,0,.63,0,.66-.05.73-.06.51-.05.48-.05.78-.09c.65-.08,1.31-.16,2-.26l.57-.09c1.29-.2,2.57-.44,3.83-.73l.7-.16.7-.17,1-.24,1-.26,1-.27,1.9-.59.93-.32.43-.15c.53-.18,1-.38,1.57-.57l1.09-.44.15-.06c.43-.17.86-.35,1.28-.54l1.34-.59c.26-.11.51-.23.77-.36l1.12-.55a61.76,61.76,0,0,0,5.56-3.12l.22-.13.22-.14.3-.2c1.41-.91,2.77-1.86,4.1-2.88l.77-.59.55-.44.06,0,.78-.64c.23-.19.46-.38.68-.58l.64-.54c.72-.64,1.43-1.29,2.12-2l.77-.74c.43-.42.85-.86,1.27-1.29s.58-.61.86-.92l.86-.95c.43-.49.85-1,1.25-1.46l.45-.54c.72-.89,1.41-1.78,2.08-2.7l.52-.72c.3-.43.6-.85.89-1.29s.52-.77.77-1.16l.69-1.09.09-.14.42-.7c.09-.14.17-.29.26-.44l.07-.12.58-1a.25.25,0,0,0,0-.07c.18-.32.36-.64.53-1s.37-.7.55-1l.5-1,0-.07.3-.63c.23-.48.45-1,.67-1.45.15-.34.3-.68.44-1l0-.07a.25.25,0,0,0,0-.07l.08-.2a64.81,64.81,0,0,0,5-25.12A65.65,65.65,0,0,0,148.08,54.22Zm-11.58,12v.31h0c0,.41,0,.81-.05,1.22s0,.89-.09,1.34h0c-.06.9-.15,1.78-.27,2.65s-.24,1.75-.4,2.62-.33,1.72-.52,2.56c-.1.43-.2.85-.31,1.27-.22.84-.45,1.67-.71,2.5-.13.41-.26.81-.4,1.22h0c-.27.82-.57,1.61-.88,2.41h0l-.49,1.18h0c-.17.4-.34.78-.51,1.17l-.54,1.16c-.37.77-.76,1.52-1.16,2.27h0c-.41.75-.83,1.48-1.27,2.2-.22.36-.44.72-.67,1.08s-.46.7-.7,1l-.15.22c-.19.28-.37.55-.57.83-.49.68-1,1.36-1.51,2l-.8,1c-.53.64-1.08,1.28-1.65,1.91l-.86.92h0l-.45.46c-.14.15-.29.3-.44.44l0,0-.19.19c-.17.18-.35.35-.53.52s-.1.09-.15.14a.46.46,0,0,1-.07.07l-.06.06c-.12.11-.24.23-.36.33a.7.7,0,0,1-.16.14l-.12.11a2.44,2.44,0,0,1-.29.27l-.29.26c-.13.13-.27.25-.41.37l-.26.23-.63.52-.43.36-.41.33-.2.16-.13.1-.17.14-.63.48-.14.1c-.69.52-1.4,1-2.12,1.51l-1.06.7-1.07.67c-.26.15-.51.31-.77.45l-.52.31-.91.51h0c-.17.1-.35.19-.53.28l-.77.4-1,.48h0c-.38.19-.76.37-1.15.54l-1,.41c-1.15.5-2.32.95-3.51,1.36l-.56.19-.79.26-.77.23-.52.16-.23.06-.75.21-.64.16c-.65.17-1.31.32-2,.46l-.36.08-.86.17-.6.1-.09,0-1,.16h-.17c-.4.07-.81.12-1.22.17l-1.16.14h0l-.39,0c-.51,0-1,.09-1.55.12-.28,0-.57,0-.87.06l-1.26.05h-.28l-1.17,0-1.15,0h-.82l-.85,0-1.2-.08c-.39,0-.78-.06-1.18-.1l-.38,0-1.12-.13-.18,0-.11,0-.54-.07a.4.4,0,0,1-.15,0c-.93-.13-1.85-.29-2.76-.47l-.67-.15-.35-.07h0l-.73-.17h0l-.54-.14-.6-.15-.06,0-.26-.07c-.54-.14-1.08-.29-1.61-.46l-.5-.15-.89-.29-.15,0-1-.36-.49-.18-1-.37-.79-.32-.13-.06-.6-.25-.66-.29-.48-.22-.45-.21-.48-.23-.7-.35-.54-.28-1-.53-.75-.42-.51-.3c-.57-.33-1.14-.67-1.7-1a1.37,1.37,0,0,1-.2-.13h0c-.67-.43-1.33-.88-2-1.34l-.11-.08h0l-1-.74h0l-.7-.54-.29-.23h0l-1-.8h0c-.32-.27-.64-.53-1-.81h0l-.22-.19c-.23-.21-.47-.41-.7-.63l0,0-.47-.43-.45-.43h0l-.45-.44-.44-.44h0l-.54-.56q-.45-.45-.87-.93l-.05,0-.14-.14-.14-.16-.6-.67-.31-.36L44,99.31l-.12-.14-.57-.67-.15-.18a.61.61,0,0,1-.07-.1.52.52,0,0,1-.1-.11L42.9,98h0a.76.76,0,0,1-.08-.11l-.43-.54-.07-.09-.12-.14,0,0,0,0a1.84,1.84,0,0,1-.17-.22.21.21,0,0,1,0-.06c-.16-.2-.31-.4-.45-.61s-.2-.27-.29-.41L41,95.49l0,0h0a0,0,0,0,1,0,0l-.11-.15-.1-.15-.18-.24-.06-.1-.1-.14-.24-.36,0-.06-.54-.8-.67-1.07c-.13-.22-.26-.45-.4-.67l-.12-.21-.07-.13-.05-.09L38,90.76l-.1-.17,0-.07a.31.31,0,0,0,0-.1l-.15-.28s-.05-.09-.07-.13l-.08-.15s0,0,0,0a.54.54,0,0,1-.07-.13c-.26-.47-.51-1-.74-1.43a2,2,0,0,1-.1-.21c-.06-.11-.11-.22-.16-.32a2.41,2.41,0,0,1-.15-.33l-.12-.27L36.1,87l-.36-.8a3.73,3.73,0,0,1-.16-.35l-.06-.16c-.05-.1-.09-.2-.13-.3s-.08-.18-.11-.27l0,0-.06-.15-.27-.67c-.12-.28-.22-.57-.32-.85s-.13-.35-.19-.53a.08.08,0,0,1,0,0,.36.36,0,0,1,0-.09s0,0,0-.08a.14.14,0,0,1,0-.06c-.11-.29-.21-.57-.3-.86l-.12-.37a.14.14,0,0,0,0-.06s0,0,0-.06l-.18-.6h0l0-.11-.12-.4c-.14-.44-.26-.88-.38-1.32v-.06a0,0,0,0,1,0,0l-.21-.78a3,3,0,0,0-.08-.32s0-.07,0-.1a.43.43,0,0,1,0-.11c-.05-.2-.1-.4-.14-.6l-.06-.24c0-.2-.09-.41-.13-.61s-.13-.66-.19-1-.14-.69-.19-1l0-.12q-.12-.66-.21-1.35h0a1.85,1.85,0,0,1,0-.23s0,0,0,0l0-.06v-.08s0,0,0,0a.25.25,0,0,1,0-.08l-.06-.47a.24.24,0,0,1,0-.08.27.27,0,0,1,0-.09.88.88,0,0,1,0-.17c-.05-.49-.11-1-.15-1.47l0-.39v-.11c0-.22,0-.43,0-.65s0-.6-.05-.9a.19.19,0,0,1,0-.08.81.81,0,0,0,0-.16v-.2s0,0,0,0,0,0,0,0h0l0-.44h0c0-.39,0-.79,0-1.19v-.41c0-.25,0-.5,0-.76s0-.35,0-.52,0-.27,0-.4,0-.32,0-.48,0-.6,0-.9v-.06a.13.13,0,0,1,0-.06l0-.46c0-.23,0-.46.05-.69s0-.29,0-.45,0,0,0-.05a.86.86,0,0,1,0-.16,2.45,2.45,0,0,0,0-.27l0-.26c0-.06,0-.13,0-.19a2304781996497.24,2304781996497.24,0,0,1,0-.16.15.15,0,0,1,0-.07.68.68,0,0,1,0-.15h0s0-.05,0-.06a.19.19,0,0,1,0-.08.22.22,0,0,1,0-.08l0-.3a.84.84,0,0,1,0-.18.77.77,0,0,1,0-.15v0s0,0,0,0l.06-.43c0-.38.11-.77.18-1.15a.2.2,0,0,1,0-.07c0-.17.05-.35.08-.52s0-.14,0-.22c.05-.24.1-.49.14-.73l.05-.26.06-.32.18-.83.21-.89.09-.36L33,52c.06-.2.11-.4.16-.6s.16-.59.25-.89.21-.75.33-1.11.25-.78.38-1.16l.36-1,.18-.49a6857788969990.61,6857788969990.61,0,0,0,.18-.48h0l.06-.17c0-.07,0-.13.08-.19a1.08,1.08,0,0,1,.08-.19.78.78,0,0,0,.05-.14l.39-.95c0-.1.08-.2.13-.3.16-.38.33-.75.5-1.13s.25-.55.39-.83c.05-.12.11-.24.17-.36l.09-.19c.21-.44.44-.87.67-1.31l.17-.31.17-.31.07-.13.12-.22.55-1,.33-.54a2,2,0,0,1,.12-.19,1,1,0,0,1,.08-.14c.06-.11.12-.22.19-.33.35-.57.72-1.14,1.1-1.69s1-1.39,1.47-2.06l.13-.18.14-.18h0l.27-.35.29-.36c.23-.31.48-.62.73-.92l.55-.65h0l.52-.62h0L45,29.7l.31-.33.24-.25,0,0q.24-.27.48-.51h0l.21-.21.06-.06.41-.42h0l.32-.31.31-.31a0,0,0,0,0,0,0h0l.48-.46h0a.6.6,0,0,0,.08-.08l.75-.69.18-.16.3-.28.32-.27.46-.39.71-.6.43-.34.07-.06.05,0,0,0,0,0,.24-.19.29-.22.24-.19.07-.05.74-.56L54,21.8l.46-.31.77-.51c.34-.23.69-.45,1-.67l.55-.33.57-.34.54-.31.15-.09.57-.32.36-.19.35-.19.27-.13.44-.23,0,0L60.4,18l.49-.24.06,0,.16-.07.09-.05.15-.07h0c.23-.11.45-.22.69-.32l.26-.12.12-.06.44-.19.18-.08.25-.11.43-.18c.32-.14.64-.27,1-.39l.33-.13.09,0,.1,0h0l.12-.05.88-.32c.45-.17.91-.33,1.37-.47h0l1-.32h0l.34-.1.49-.15.32-.08.17,0,.61-.17c.16,0,.32-.09.48-.12l.35-.09.12,0,.1,0,.34-.08.42-.09.07,0,1.09-.22.16,0,.83-.16L76,13.07l.28-.05.76-.1h.14l.14,0h0s0,0,0,0l1.13-.13L79,12.7h0l.29,0,.27,0a2.31,2.31,0,0,1,.37,0l.51,0h.17l.3,0h1c.64,0,1.3,0,2,0l1.36,0h.27l.58,0h.2l.82,0h.49l.58,0,.32,0h.26l.2,0,.53.06a3,3,0,0,1,.42,0l.42,0,.54.07.18,0,.16,0,.19,0h.08l.18,0,.23,0,.22,0,.76.12.2,0h0l.11,0,.28.05.28.05.36.07.2,0,.16,0h0l.28.06.29.06.46.1.25.06,1.26.31.58.15.57.15.26.08.89.26.07,0,.82.27.32.1.42.14.79.28.2.07.79.3a.05.05,0,0,1,0,0h0l.61.24.9.37.24.11.1,0,.83.36,0,0,.42.19.63.29.06,0,.87.43.5.26.54.28.26.14.24.13,0,0,0,0s0,0,0,0c.24.12.46.25.7.38l.2.12,0,0,.27.15,0,0,.22.13.51.3.48.3.39.24.52.33.59.4.68.46.13.1q.64.43,1.26.9l.33.25.32.24.15.12.54.43c.22.16.44.34.66.52s.5.42.75.64l.34.28.2.18.57.5.17.16.37.34.36.33,1,1,.52.53h0l.07.07.1.1c.21.22.42.43.63.66.44.47.87.95,1.29,1.43a.81.81,0,0,1,.09.1l0,0,0,0,.13.14.2.25.34.41.22.26.23.28.16.2.26.33.19.24.35.46.07.1.09.11,0,0a1,1,0,0,1,.08.11c.1.12.19.25.28.38a.1.1,0,0,1,0,0l.07.1.09.12.33.46.23.33.19.27c0,.07.09.14.14.2l.06.09.31.48.17.25.21.32a1.74,1.74,0,0,1,.11.18l.14.22c.13.2.25.4.37.6a1.09,1.09,0,0,1,.08.15.22.22,0,0,1,.05.08,1.74,1.74,0,0,1,.11.18c.07.1.13.21.2.32s.18.3.26.45l0,0c.05.08.09.16.13.24s.21.35.3.53l.16.29.21.38.27.53c.07.12.13.25.19.37l.09.17.1.19.31.63a2,2,0,0,0,.1.21l.27.59,0,0,0,0,.12.26.14.33.34.78,0,.07.05.12c.07.16.13.32.19.48a6.07,6.07,0,0,1,.24.59h0l.42,1.1c.09.26.19.52.28.79a1.54,1.54,0,0,0,.05.17c.07.17.13.35.19.53s.13.41.2.62.19.6.28.91h0s0,0,0,0l.3,1,.24.88s0,0,0,.05,0,.1,0,.15,0,.06,0,.08c.07.3.14.6.22.9v0h0s0,.07,0,.11l.27,1.23s0,0,0,0c.05.28.11.55.16.83s.09.51.14.76c.09.54.17,1.08.25,1.61,0,.2.05.41.08.61a.43.43,0,0,0,0,0v0q.09.65.15,1.29h0v.1s0,.11,0,.17c0,.33.06.66.08,1,0,0,0,0,0,.08v0c0,.39.06.78.08,1.16v.14a.49.49,0,0,1,0,.12c0,.15,0,.31,0,.46s0,.43,0,.65a.53.53,0,0,1,0,.13c0,.44,0,.9,0,1.35S136.51,65.84,136.5,66.23Z"/><path class="cls-18" d="M83.91,10.35a54.72,54.72,0,1,0,54.71,54.71A54.7,54.7,0,0,0,83.91,10.35Zm0,107.31a52.6,52.6,0,1,1,52.6-52.6A52.6,52.6,0,0,1,83.91,117.66Z"/><path class="cls-19" d="M112.11,18.17c-.84-.51-1.69-1-2.56-1.45a54.8,54.8,0,0,0-50.81-.25c-.89.45-1.75.94-2.61,1.45a54.72,54.72,0,1,0,56,.25Zm-28.2,99.49a52.61,52.61,0,0,1-26-98.34c1-.55,2-1.07,3-1.56a52.67,52.67,0,0,1,47.15.55c.76.39,1.5.8,2.25,1.24a52.6,52.6,0,0,1-26.38,98.11Z"/><path class="cls-20" d="M108.91,23.49c-.74-.45-1.5-.88-2.27-1.28a48.55,48.55,0,0,0-45-.22c-.79.4-1.55.83-2.31,1.28a48.49,48.49,0,1,0,49.62.22Zm-25,88.2a46.63,46.63,0,0,1-23-87.17c.85-.49,1.73-.95,2.62-1.39a46.75,46.75,0,0,1,41.8.49c.67.35,1.33.71,2,1.1a46.63,46.63,0,0,1-23.38,87Z"/><path class="cls-21" d="M143.86,90.38A65.08,65.08,0,0,1,29.66,101c.67.83,22.77,27.83,54.26,27.12C126,127.17,142.53,93.25,143.86,90.38Z"/><path class="cls-22" d="M49.18,107.94c-.18.3-8.11.09-14.31-.12A65.47,65.47,0,0,1,29.66,101v0A64.32,64.32,0,0,1,24,90.4c-.17-.42-.35-.84-.51-1.25,4.56,2.89,10.61,6.23,15,7.44a17.33,17.33,0,0,0,3.83.66l.07.09.43.54a.76.76,0,0,0,.08.11h0l.09.12a.52.52,0,0,0,.1.11.61.61,0,0,0,.07.1l.15.18.57.67.12.14.07.08.31.36.6.67.14.16.14.14.05,0q.42.48.87.93l.54.56h0l.44.44.45.44h0l.45.43.47.43,0,0A12.46,12.46,0,0,1,49.18,107.94Z"/><path class="cls-22" d="M142.69,93l-.3.63,0,.07-.5,1c-.18.35-.36.7-.55,1s-.35.65-.53,1a.25.25,0,0,1,0,.07l-.58,1-.07.12c-.09.15-.17.3-.26.44l-.42.7-.09.14-.69,1.09c-.25.39-.51.78-.77,1.16s-.59.86-.89,1.29l-.52.72c-.67.92-1.36,1.81-2.08,2.7l-.45.54c-.4.49-.82,1-1.25,1.46l-.86.95c-.28.31-.57.62-.86.92l-14.24-3.83.41-.33.43-.36.63-.52.26-.23c.14-.12.28-.24.41-.37l.29-.26a2.44,2.44,0,0,0,.29-.27l.12-.11a.7.7,0,0,0,.16-.14c.12-.1.24-.22.36-.33l.06-.06a.46.46,0,0,0,.07-.07s.11-.09.15-.14.36-.34.53-.52l.19-.19,0,0c.15-.14.3-.29.44-.44l.45-.46h0l.86-.92c.57-.63,1.12-1.27,1.65-1.91l.8-1c.52-.66,1-1.34,1.51-2,.2-.28.38-.55.57-.83a10.48,10.48,0,0,0,2.39.23A52.86,52.86,0,0,0,142.69,93Z"/><path class="cls-9" d="M133,35.1C128.33,29.49,106,6.28,82.7,7.53,50.4,9.27,40,34.22,37.51,31.42c-1.73-1.94,6.14-16.84,21.12-26.33,1.28-.53,2.57-1,3.87-1.48A61.86,61.86,0,0,1,70,1.49h0A64.51,64.51,0,0,1,80.43.09Q82.16,0,83.91,0C85,0,86.1,0,87.19.08a63.19,63.19,0,0,1,6.48.65l.69.11c.42.06.82.13,1.23.21h0c.66.12,1.32.25,2,.39s1.42.31,2.13.49a64.54,64.54,0,0,1,6.64,2l.52.2a65.24,65.24,0,0,1,14.36,7.58C132.8,23.57,135.28,37.88,133,35.1Z"/><path class="cls-2" d="M23.47,117.72s-2.34-.43-2.53.44c-.14.62,1.84,6,19.57,5.56C56.78,123.3,23.47,117.72,23.47,117.72Z"/><path class="cls-2" d="M38.66,125.46s-3.58,0-3.46,1.14c.08.82,3.39,5.59,15.93,3.81C64.29,128.54,38.66,125.46,38.66,125.46Z"/><path class="cls-2" d="M5.71,85.21S1.13,80.87.18,81.34,1.59,88.8,3.6,91.62c1.56,2.2,4.56,8.33,15.64,12.9C24.58,106.72,12,92.05,12,92.05Z"/><path class="cls-2" d="M15.45,106.51s-2.25-.66-2.62,0,2.86,6.14,10.89,8C31.1,116.29,15.45,106.51,15.45,106.51Z"/><path class="cls-23" d="M62.76,125.9a1.25,1.25,0,0,1-.28.37c-5.12,4.81-22.45,6.56-26.73.59-.43-.6-.08-.9.76-1.1h0c2-.47,6.83-.34,10.43-2.18h-.06c-1.35.07-23.27,1.27-25.66-5.31-.11-.28.08-.44.49-.51,2.31-.45,11.79,1.64,17-1.22a48.7,48.7,0,0,1-8.93-.57c-5.8-.91-12.88-3.15-16.37-8.62-.48-.75-.19-1,.63-1h0c3,0,13,3.79,18.09,2,0,0-.92-.1-2.43-.41h0C23,106.57,4.72,101.18.79,82.88c-.23-1,0-1.2.8-.74h0C5.08,84.21,24,102.08,45.55,102.21,45.55,102.21,65,121.61,62.76,125.9Z"/><path class="cls-24" d="M29.66,107.94h0C23,106.57,4.72,101.18.79,82.88c-.23-1,0-1.2.8-.74-.09,0-.51-.18-.28,1.13.26,1.47,4.27,14.14,21.81,20.83C31.94,107.47,32.09,107.86,29.66,107.94Z"/><path class="cls-25" d="M29.74,116c-5.8-.91-12.88-3.15-16.37-8.62-.48-.75-.19-1,.63-1a.46.46,0,0,0-.37.72c.21.48,5.37,7.37,18.12,7C40.28,113.77,34.49,115.09,29.74,116Z"/><path class="cls-26" d="M51,122.94l-4,.64h-.06c-1.35.07-23.27,1.27-25.66-5.31-.11-.28.08-.44.49-.51a.6.6,0,0,0-.08.79c.3.44,5.14,4.16,14.56,4.15a38,38,0,0,0,15.59-3.1Z"/><path class="cls-27" d="M62.78,125.4l0,.5a1.25,1.25,0,0,1-.28.37c-5.12,4.81-22.45,6.56-26.73.59-.43-.6-.08-.9.76-1.1h0s-.94.39-.45.95,5.72,4.41,17.07,1.6C62.31,126.05,62.78,125.4,62.78,125.4Z"/><path class="cls-28" d="M16.37,100.33A35.31,35.31,0,0,1,5,89.28C1.47,83.66,2.44,83.35,2.82,84S15.89,95.81,24,98.22s3.57,5.94,3.57,5.94Z"/><path class="cls-28" d="M14.48,106.63c-.76-.22,1.15,4.68,13.74,6.57,9.82,1.48,13.49-1.12,13.49-1.12s-4.83-3.68-5-3.35S27.84,110.48,14.48,106.63Z"/><path class="cls-28" d="M33.76,119.06s-11.76-1.77-11.34-.68,7,4.52,19,3.33C46.31,121.23,33.76,119.06,33.76,119.06Z"/><path class="cls-28" d="M46.31,125.23s-7.78.08-9.67.8c-1.37.51,6,4.09,12.67,2.68C53.81,127.75,46.31,125.23,46.31,125.23Z"/><path class="cls-11" d="M17.19,95.89s-4.73-3-5.43-2.61c-1.11.65.13,5.28,6.75,10.34,6.12,4.67,9.38,6.3,19,8.08,3.75.69-4.13-3.07-4.13-3.07Z"/><path class="cls-11" d="M29.83,112.74c-.09,0-5.18-.45-6-.19-.94.33-.26,1.36.81,2.42,1.46,1.44,9.75,6.8,17.22,7.68,6.61.78,9.37.15,9.37.15Z"/><path class="cls-11" d="M43.83,125.09s-2.24.65-2.37,1.33c-.17,1,1.3,2.45,10.12,2.55,9.25.12,14.84-3.11,14.84-3.11Z"/><path class="cls-29" d="M67.33,125.31c-.3.2-.6.38-.91.55a20.4,20.4,0,0,1-5.24,1.92c-9.92,2.36-23.23.11-18.53-2.23.24-.11.52-.23.84-.34,1.45-.52,2.58-1,3.44-1.35a14.39,14.39,0,0,0,2.66-1.38c-12.78,2-29.66-9.8-24.87-9.72h.16c6.71.11,9.89-.3,11.39-.71a3.67,3.67,0,0,0,1.07-.43h0c.27-.18.27-.3.27-.3C19.53,109.46,9,93.5,12.43,93.62a.65.65,0,0,1,.19,0c2.5.44,8.05,5.69,20.35,7.74,10.62,1.78,13.71-.61,16.2-.3,5.59.7,9.49,2.82,12.19,5.55C68.56,113.86,67.33,125.31,67.33,125.31Z"/><g class="cls-30"><path class="cls-31" d="M27.44,106.65c-11-3.6-15-11.74-15.13-12.34s.09-.68.12-.69c-3.41-.12,7.11,15.84,25.19,17.7C37.74,111,38.32,110.22,27.44,106.65Z"/></g><path class="cls-32" d="M47,123.86h0a14.39,14.39,0,0,0,2.66-1.38c-12.78,2-29.66-9.8-24.87-9.72h.13c-.13,0-.67.11-.54.56.32,1.12,14.2,9.38,24.05,8.29C55.19,120.85,47,123.86,47,123.86Z"/><path class="cls-33" d="M61.36,106.63s-4.77,3.52-5.11,8.14c-.53,7.19,2.69,10.13,2.18,10.63-2.88,2.81-15.63,1.68-16.12,1.21s.34-1.06.34-1.06c-4.93,2.45,9.93,4.8,19.93,1.87l.06,0,1.25-.41.11,0c.4-.15.79-.31,1.17-.47l.13-.06c.37-.17.73-.35,1.07-.53l0,0c.31-.17.61-.35.91-.55C67.33,125.31,68.56,113.86,61.36,106.63Z"/><path class="cls-34" d="M23.09,99.39S34.8,104.48,47.9,103c6.48-.73,10.77,4.64,10.27,4.94s-4.43-2.13-9.38-2.72S29.57,105,23.09,99.39Z"/><path class="cls-35" d="M15.59,97c.95-.72,8.34,7.31,20.52,8.22s22.74,1.41,20.51,4.88c-1.28,2-2.68,10,.18,14.09,1.67,2.39-13.21,3.61-13.65,2.33s7.92-1.1,9.06-5.43c.3-1.17-6.08.85-12.61-.85s-13.76-5.8-12.57-6.44,12.94.93,14.42-3c.54-1.42-11.74-3.74-15.75-5.31S14,98.21,15.59,97Z"/><path class="cls-11" d="M60.87,108.16c-.92,1.12-4.19-2-3.23-2.39S61.87,106.94,60.87,108.16Z"/><path class="cls-11" d="M58.21,104.73c-.14-.49-2.4-1-2.1-.49S58.71,106.35,58.21,104.73Z"/><path class="cls-36" d="M144.36,117.72s2.33-.43,2.52.44c.14.62-1.83,6-19.56,5.56C111,123.3,144.36,117.72,144.36,117.72Z"/><path class="cls-37" d="M129.17,125.46s3.58,0,3.46,1.14c-.09.82-3.39,5.59-15.93,3.81C103.54,128.54,129.17,125.46,129.17,125.46Z"/><path class="cls-38" d="M162.12,85.21s4.58-4.34,5.52-3.87-1.4,7.46-3.41,10.28c-1.56,2.2-4.56,8.33-15.64,12.9-5.35,2.2,7.22-12.47,7.22-12.47Z"/><path class="cls-38" d="M152.37,106.51s2.26-.66,2.63,0-2.86,6.14-10.89,8C136.73,116.29,152.37,106.51,152.37,106.51Z"/><path class="cls-39" d="M105.07,125.9a1.41,1.41,0,0,0,.27.37c5.13,4.81,22.46,6.56,26.74.59.43-.6.08-.9-.76-1.1h0c-2-.47-6.83-.34-10.44-2.18h.07c1.35.07,23.27,1.27,25.66-5.31.1-.28-.09-.44-.49-.51-2.31-.45-11.79,1.64-17-1.22a48.79,48.79,0,0,0,8.94-.57c5.79-.91,12.88-3.15,16.37-8.62.47-.75.19-1-.63-1h0c-3,0-13,3.79-18.09,2,0,0,.91-.1,2.42-.41h0c6.66-1.37,24.93-6.76,28.87-25.06.22-1,0-1.2-.81-.74h0c-3.47,2.07-22.41,19.94-43.94,20.07C122.28,102.21,102.82,121.61,105.07,125.9Z"/><path class="cls-40" d="M138.16,107.94h0c6.66-1.37,24.93-6.76,28.87-25.06.22-1,0-1.2-.81-.74.1,0,.52-.18.29,1.13-.27,1.47-4.27,14.14-21.82,20.83C135.89,107.47,135.74,107.86,138.16,107.94Z"/><path class="cls-41" d="M138.09,116c5.79-.91,12.88-3.15,16.37-8.62.47-.75.19-1-.63-1a.46.46,0,0,1,.37.72c-.21.48-5.37,7.37-18.12,7C127.55,113.77,133.34,115.09,138.09,116Z"/><path class="cls-42" d="M116.85,122.94l4,.64h.07c1.35.07,23.27,1.27,25.66-5.31.1-.28-.09-.44-.49-.51a.59.59,0,0,1,.07.79c-.29.44-5.14,4.16-14.55,4.15a38,38,0,0,1-15.59-3.1Z"/><path class="cls-43" d="M105.05,125.4l0,.5a1.41,1.41,0,0,0,.27.37c5.13,4.81,22.46,6.56,26.74.59.43-.6.08-.9-.76-1.1h0s.94.39.44.95-5.71,4.41-17.07,1.6C105.52,126.05,105.05,125.4,105.05,125.4Z"/><path class="cls-28" d="M151.45,100.33a35.29,35.29,0,0,0,11.43-11c3.48-5.62,2.5-5.93,2.13-5.33s-13.07,11.86-21.14,14.27-3.56,5.94-3.56,5.94Z"/><path class="cls-28" d="M153.34,106.63c.77-.22-1.14,4.68-13.73,6.57-9.82,1.48-13.49-1.12-13.49-1.12s4.83-3.68,5-3.35S140,110.48,153.34,106.63Z"/><path class="cls-28" d="M134.07,119.06s11.76-1.77,11.33-.68-7,4.52-19,3.33C121.52,121.23,134.07,119.06,134.07,119.06Z"/><path class="cls-28" d="M121.52,125.23s7.77.08,9.67.8c1.36.51-6,4.09-12.68,2.68C114,127.75,121.52,125.23,121.52,125.23Z"/><path class="cls-11" d="M150.63,95.89s4.74-3,5.44-2.61c1.11.65-.14,5.28-6.75,10.34-6.12,4.67-9.39,6.3-19,8.08-3.75.69,4.13-3.07,4.13-3.07Z"/><path class="cls-11" d="M138,112.74c.09,0,5.18-.45,6-.19.94.33.26,1.36-.82,2.42-1.45,1.44-9.74,6.8-17.21,7.68-6.61.78-9.37.15-9.37.15Z"/><path class="cls-11" d="M124,125.09s2.24.65,2.36,1.33c.18,1-1.29,2.45-10.11,2.55-9.25.12-14.84-3.11-14.84-3.11Z"/><path class="cls-44" d="M100.5,125.31c.3.2.6.38.9.55a20.61,20.61,0,0,0,5.25,1.92c9.92,2.36,23.23.11,18.53-2.23-.24-.11-.52-.23-.84-.34-1.45-.52-2.58-1-3.45-1.35a14.44,14.44,0,0,1-2.65-1.38c12.78,2,29.66-9.8,24.87-9.72H143c-6.71.11-9.89-.3-11.39-.71a3.9,3.9,0,0,1-1.08-.43h0c-.27-.18-.27-.3-.27-.3,18.09-1.86,28.6-17.82,25.2-17.7a.65.65,0,0,0-.19,0c-2.51.44-8.05,5.69-20.36,7.74-10.62,1.78-13.7-.61-16.19-.3-5.6.7-9.49,2.82-12.2,5.55C99.27,113.86,100.5,125.31,100.5,125.31Z"/><g class="cls-30"><path class="cls-45" d="M140.39,106.65c11-3.6,15-11.74,15.12-12.34s-.08-.68-.11-.69c3.41-.12-7.11,15.84-25.2,17.7C130.09,111,129.51,110.22,140.39,106.65Z"/></g><path class="cls-46" d="M120.88,123.86h0a14.44,14.44,0,0,1-2.65-1.38c12.78,2,29.66-9.8,24.87-9.72H143c.13,0,.67.11.54.56-.32,1.12-14.21,9.38-24.05,8.29C112.64,120.85,120.88,123.86,120.88,123.86Z"/><path class="cls-47" d="M106.46,106.63s4.78,3.52,5.12,8.14c.52,7.19-2.7,10.13-2.18,10.63,2.88,2.81,15.62,1.68,16.12,1.21s-.35-1.06-.35-1.06c4.93,2.45-9.92,4.8-19.92,1.87l-.06,0c-.43-.13-.84-.27-1.25-.41l-.11,0c-.4-.15-.79-.31-1.17-.47l-.13-.06c-.37-.17-.73-.35-1.07-.53l-.06,0c-.3-.17-.6-.35-.9-.55C100.5,125.31,99.27,113.86,106.46,106.63Z"/><path class="cls-48" d="M144.73,99.39S133,104.48,119.92,103c-6.47-.73-10.77,4.64-10.26,4.94s4.43-2.13,9.38-2.72S138.26,105,144.73,99.39Z"/><path class="cls-35" d="M152.24,97c-1-.72-8.34,7.31-20.53,8.22s-22.74,1.41-20.5,4.88c1.28,2,2.67,10-.18,14.09-1.67,2.39,13.2,3.61,13.65,2.33s-7.92-1.1-9.06-5.43c-.31-1.17,6.08.85,12.61-.85s13.76-5.8,12.57-6.44-12.94.93-14.42-3c-.54-1.42,11.74-3.74,15.75-5.31S153.79,98.21,152.24,97Z"/><path class="cls-11" d="M107,108.16c.92,1.12,4.19-2,3.23-2.39S106,106.94,107,108.16Z"/><path class="cls-11" d="M109.61,104.73c.15-.49,2.4-1,2.11-.49S109.11,106.35,109.61,104.73Z"/><path class="cls-3" d="M63.74,104.84s5.34-5.28,15.24.44c2.79,1.61,4.94,5.31,4.94,5.31s3.49-7.25,11.85-7.38S82.7,114.78,82.7,114.78L73.77,111Z"/><path class="cls-49" d="M107,122.86h0a11.37,11.37,0,0,1-1.65,2.58C97.38,134.7,86.05,136,84.07,136.18v0h-.31v0a33.41,33.41,0,0,1-19.14-8.53,27.78,27.78,0,0,1-2.12-2.2c-5.63-6.57-4.12-22.26,6.69-22.41,9.26-.13,13.66,6,14.73,8.18C85,109,89.37,102.91,98.64,103,108.21,103.18,110.49,115.48,107,122.86Z"/><path class="cls-50" d="M100.28,125.07c-6.07,7.08-14.73,8.08-16.25,8.21H83.8c-1.52-.13-10.18-1.13-16.25-8.21a7.17,7.17,0,0,1-1-1.38c-3.13-5.55-1.53-15.64,6.06-15.75a12.22,12.22,0,0,1,11.26,6.5,12.19,12.19,0,0,1,11.26-6.5c3.55,0,5.79,2.29,6.84,5.24C103.42,117.08,102.74,122.21,100.28,125.07Z"/><path class="cls-51" d="M98.1,125A21.85,21.85,0,0,1,84,132.09h-.21a22,22,0,0,1-13.49-6.45,0,0,0,0,0,0,0c-.2-.21-.39-.43-.58-.65C66,120.63,67,110.23,74.15,110.12c.31,0,.6,0,.89,0,5.54.39,8.2,5.08,8.88,6.48.7-1.47,3.61-6.59,9.76-6.51,3.27,0,5.26,2.25,6.09,5C100.76,118.47,100.13,122.62,98.1,125Z"/><path class="cls-9" d="M68.45,116.33c-.73,3.85,1,9,4.17,10.7s10.06,4.44,13.81,2.63c8.2-3.94,11.1-9,11-14.5-.06-3.57-5.87-3.36-9-1.93-4.33,2-5.82,10.3-5.87,9.63-.32-4.1-4.72-11.66-8.64-11.39A6.33,6.33,0,0,0,68.45,116.33Z"/><path class="cls-52" d="M70.69,115.16a5.27,5.27,0,0,1,4.7-2.81c2.53,0,5.6,5.68,6.18,8.52.75,3.69-1.45,6.16-6.4,5.11C71.65,125.22,67.26,120.79,70.69,115.16Z"/><path class="cls-9" d="M64.21,121.72c-.83.39-5.12-8-2.74-13.25s10.33-5.5,15.36-2.84,6.4,5.12,6,5.3c-.78.39-3.55-2.88-9.59-4-3-.54-8,.17-8.81,7.62C63.78,120.52,64.8,121.45,64.21,121.72Z"/><path class="cls-9" d="M90.73,107.18c1.46-2.66,8.51-5.88,13.31-1.7s1.37,11.83.43,11.83.57-5.67-3.6-9C96.47,104.85,90,108.5,90.73,107.18Z"/><path class="cls-3" d="M70.57,128s6.22,6.26,13.35,5.89,12.86-5.51,12.86-5.51S90,133.29,83.67,133A21.42,21.42,0,0,1,70.57,128Z"/><path class="cls-6" d="M107,122.87a11.37,11.37,0,0,1-1.65,2.58C97.38,134.7,86.05,136,84.07,136.18v0h-.31v0a33.41,33.41,0,0,1-19.14-8.53c6.77,5.64,14.74,7.82,19,7.51C97.31,134.18,106.68,123.21,107,122.87Z"/></g></g></g></svg>